<?xml version="1.0" standalone="no"?>
<!DOCTYPE svg PUBLIC "-//W3C//DTD SVG 20010904//EN"
 "http://www.w3.org/TR/2001/REC-SVG-20010904/DTD/svg10.dtd">
<svg version="1.0" xmlns="http://www.w3.org/2000/svg"
 width="700.000000pt" height="700.000000pt" viewBox="0 0 700.000000 700.000000"
 preserveAspectRatio="xMidYMid meet">
<metadata>
Created by potrace 1.14, written by Peter Selinger 2001-2017
</metadata>
<g transform="translate(0.000000,700.000000) scale(0.100000,-0.100000)"
fill="#000000" stroke="none">
<path d="M1547 6933 c-89 -91 -138 -159 -186 -257 -95 -196 -87 -379 26 -579
39 -70 51 -87 165 -241 49 -65 100 -141 114 -168 27 -54 33 -123 15 -171 -13
-34 -59 -101 -95 -141 -15 -15 -26 -32 -24 -37 2 -5 64 -70 138 -145 l134
-136 43 48 c86 97 174 245 189 316 42 199 26 308 -73 487 -19 36 -83 130 -141
210 -148 203 -152 208 -159 283 -7 65 29 136 116 230 l69 74 -77 85 c-42 46
-101 113 -131 147 l-56 63 -67 -68z"/>
<path d="M2570 6971 c-142 -152 -199 -232 -244 -343 -32 -82 -40 -129 -39
-230 2 -150 61 -284 222 -499 143 -192 162 -226 168 -297 5 -49 1 -66 -22
-111 -15 -30 -46 -75 -71 -101 l-44 -47 141 -143 141 -143 22 24 c156 170 239
357 231 523 -8 172 -66 293 -273 566 -84 111 -115 170 -120 236 -4 44 1 61 27
111 18 33 59 86 91 119 33 32 60 63 60 68 0 7 -31 43 -187 216 -17 19 -40 45
-51 58 -23 26 -21 27 -52 -7z"/>
<path d="M3519 6928 c-167 -174 -251 -356 -245 -531 6 -143 59 -271 182 -440
195 -268 214 -302 214 -379 0 -46 -41 -126 -96 -187 l-45 -50 141 -142 140
-142 31 34 c141 155 220 322 223 474 5 177 -59 321 -260 585 -159 208 -172
290 -69 425 20 25 54 63 76 83 42 39 45 47 27 66 -7 7 -40 43 -73 81 -33 37
-65 73 -71 79 -5 6 -32 35 -58 64 l-47 54 -70 -74z"/>
<path d="M904 2728 c1 -1030 6 -1888 10 -1907 40 -175 107 -295 235 -421 123
-120 278 -198 429 -216 31 -4 626 -7 1322 -7 1390 1 1318 -2 1469 61 203 86
366 259 440 469 40 112 44 150 46 433 2 135 3 248 4 253 0 4 10 7 22 7 11 0
57 9 102 20 333 83 623 289 820 583 48 72 127 220 141 267 5 14 10 30 12 35
35 96 65 229 79 350 4 37 9 972 5 1111 l0 21 -580 -1 c-320 -1 -586 1 -593 4
-10 4 -12 97 -12 405 l0 400 -1977 3 -1977 2 3 -1872z m4727 656 c14 -4 15
-44 14 -357 -2 -361 -4 -380 -35 -504 -58 -226 -220 -454 -415 -584 -113 -76
-293 -150 -329 -136 -8 3 -11 207 -10 793 1 434 2 790 3 791 3 4 758 1 772 -3z"/>
</g>
</svg>
